# xmcd CD database file generated by OrangeCD 5.2
#
# Track frame offsets:
#	150
#	12901
#	25527
#	38105
#	50054
#	60857
#	73786
#	85201
#	97667
#	106815
#	118323
#	130864
#	139907
#	150661
#	166987
#	183243
#	195457
#	207177
#	217972
#	230499
#	241036
#	252549
#	266571
#	277492
#	289387
#	299579
#	313211
#	325157
#	337288
#
# Disc length: 4642 seconds
#
# Revision: 0
# Processed by: cddbd v1.5.1PL0 Copyright (c) Steve Scherf et al.
# Submitted via: OrangeCD 5.2
#
DISCID=b812201d
DTITLE=Kevin Shegog - Ballad Of A Hillbilly Singer
DYEAR=2005
DGENRE=Country
TTITLE0=Ballad Of A Hillbilly Singer
TTITLE1=Little Kangaroo
TTITLE2=My Blues And Me
TTITLE3=One Small Photograph
TTITLE4=I'm So In Love With You
TTITLE5=Wolverton Mountain
TTITLE6=Fall-out Shelter
TTITLE7=Big Lazy Old River
TTITLE8=I've Got The World By The Tail
TTITLE9=Then I Gave You My Heart
TTITLE10=Lorena
TTITLE11=From Here On In
TTITLE12=Cowboy Boots
TTITLE13=If You Were In My Shoes
TTITLE14=Pretty Blue Ribbon
TTITLE15=Great Big Casey
TTITLE16=Lonesome Whistle
TTITLE17=Dark Moon
TTITLE18=A Girl I Used To Know
TTITLE19=Worried Mind
TTITLE20=All Over Again
TTITLE21=Daddy Frank
TTITLE22=Pentridge
TTITLE23=Melbourne Airport, Tullamarine
TTITLE24=Cry Of The Wild Goose
TTITLE25=Riders In The Sky
TTITLE26=High Noon
TTITLE27=Mule Train
TTITLE28=Phantom Stage
EXTD=
EXTT0=
EXTT1=
EXTT2=
EXTT3=
EXTT4=
EXTT5=
EXTT6=
EXTT7=
EXTT8=
EXTT9=
EXTT10=
EXTT11=
EXTT12=
EXTT13=
EXTT14=
EXTT15=
EXTT16=
EXTT17=
EXTT18=
EXTT19=
EXTT20=
EXTT21=
EXTT22=
EXTT23=
EXTT24=
EXTT25=
EXTT26=
EXTT27=
EXTT28=
PLAYORDER=
